<?xml version="1.0" standalone="no"?><!DOCTYPE svg PUBLIC "-//W3C//DTD SVG 1.1//EN" "http://www.w3.org/Graphics/SVG/1.1/DTD/svg11.dtd"><svg t="1604901982740" class="icon" viewBox="0 0 1024 1024" version="1.1" xmlns="http://www.w3.org/2000/svg" p-id="8215" xmlns:xlink="http://www.w3.org/1999/xlink" width="200" height="200"><defs><style type="text/css"></style></defs><path d="M389.951318 773.310216a379.805213 379.805213 0 1 0 0-759.559474 379.805213 379.805213 0 0 0 0 759.559474z m0-101.906416a277.898797 277.898797 0 1 1 0-555.746641 277.898797 277.898797 0 0 1 0 555.746641z" fill="#CCCCCC" p-id="8216" data-spm-anchor-id="a313x.7781069.0.i36" class=""></path><path d="M599.216144 124.523017m-119.587179 0a119.587179 119.587179 0 1 0 239.174359 0 119.587179 119.587179 0 1 0-239.174359 0Z" fill="#B2B2B2" p-id="8217" data-spm-anchor-id="a313x.7781069.0.i41" class=""></path><path d="M838.33955 841.944187m-179.355293 0a179.355293 179.355293 0 1 0 358.710586 0 179.355293 179.355293 0 1 0-358.710586 0Z" fill="#CCCCCC" p-id="8218" data-spm-anchor-id="a313x.7781069.0.i37" class=""></path><path d="M120.918379 901.763254m-119.587179 0a119.587179 119.587179 0 1 0 239.174359 0 119.587179 119.587179 0 1 0-239.174359 0Z" fill="#CCCCCC" p-id="8219" data-spm-anchor-id="a313x.7781069.0.i38" class=""></path><path d="M957.92673 423.465489m-59.768114 0a59.768113 59.768113 0 1 0 119.536227 0 59.768113 59.768113 0 1 0-119.536227 0Z" fill="#F0F0F0" p-id="8220" data-spm-anchor-id="a313x.7781069.0.i39" class=""></path></svg>