<?xml version="1.0" standalone="no"?><!DOCTYPE svg PUBLIC "-//W3C//DTD SVG 1.1//EN" "http://www.w3.org/Graphics/SVG/1.1/DTD/svg11.dtd"><svg t="1604902270581" class="icon" viewBox="0 0 1102 1024" version="1.1" xmlns="http://www.w3.org/2000/svg" p-id="12685" data-spm-anchor-id="a313x.7781069.0.i58" xmlns:xlink="http://www.w3.org/1999/xlink" width="215.234375" height="200"><defs><style type="text/css"></style></defs><path d="M744.525624 390.932666a34.894716 34.894716 0 0 0-50.097154-4.095993l-215.039669 188.100633-68.214049-74.042963a34.973485 34.973485 0 0 0-50.41223-1.339075 37.257789 37.257789 0 0 0-1.339075 51.672536l91.529705 99.249078a35.052254 35.052254 0 0 0 48.915617 2.67815l240.718399-210.628599a37.336558 37.336558 0 0 0 3.938456-51.593767zM306.09676 217.24678a35.918714 35.918714 0 0 0 63.881748-23.709502V37.023057a37.100251 37.100251 0 0 0-10.63383-26.151344 35.446099 35.446099 0 0 0-16.77782-9.609832A34.107024 34.107024 0 0 0 333.744717 0.001575c-20.243661 0-36.23379 16.541513-36.23379 37.021482v156.435452c0 9.058448 3.229533 17.329204 8.585833 23.788271z m462.926057 13.154441a35.682407 35.682407 0 0 0 25.757499-10.870137 37.336558 37.336558 0 0 0 10.55506-26.230114V37.023057a37.415327 37.415327 0 0 0-10.633829-26.230114A35.682407 35.682407 0 0 0 769.022817 0.001575c-20.164892 0-36.23379 16.541513-36.233791 37.021482v156.277913c0 10.239984 4.017225 19.534739 10.555061 26.230114 6.616605 6.695374 15.753822 10.870137 25.67873 10.870137z" fill="#CCCCCC" p-id="12686" data-spm-anchor-id="a313x.7781069.0.i53" class=""></path><path d="M1022.107966 194.167431c-1.575382-46.473775-22.291658-83.731563-58.131603-104.920454-22.212889-13.154441-43.559318-14.966131-61.518674-14.966131H874.337116c-19.692277 0-35.682407 17.565511-35.682406 39.384555 0 21.582736 15.91136 39.227017 35.682406 39.227016 30.719953 0 74.751885-3.938455 76.406037 42.850396 0 189.518478 0.472615 378.879417 0.393845 568.397894v51.672536c0 23.709502-16.541513 42.45655-36.548867 42.45655H187.943095c-20.716276 0-36.548867-20.243661-36.548866-42.45655V196.136658c0-30.0898 22.843042-45.528545 47.891618-45.528545h28.041803c19.692277 0 35.682407-17.565511 35.682407-39.305786S247.019928 71.917772 227.32765 71.917772H199.285847c-51.042383 0-103.029995 33.240564-116.263205 90.348169A154.702531 154.702531 0 0 0 78.76911 196.136658v619.676585c0 43.795625 21.819043 86.252175 57.028835 107.756142 15.517515 9.452293 33.240564 14.808593 52.22392 14.808593h726.723805c60.415907 0 109.252755-56.713759 109.252755-122.564735l-1.890459-621.645812z" fill="#CCCCCC" p-id="12687" data-spm-anchor-id="a313x.7781069.0.i52" class=""></path><path d="M445.83316 157.539795h218.190434c19.534739 0 35.446099-21.110121 35.446099-47.261466 0-26.151344-15.91136-47.261466-35.446099-47.261466H445.83316c-19.613508 0-35.524868 21.110121-35.524868 47.261466 0 26.151344 15.91136 47.261466 35.524868 47.261466z" fill="#CCCCCC" p-id="12688" data-spm-anchor-id="a313x.7781069.0.i55" class=""></path></svg>